<svg version="1.1" id="Layer_1" xmlns="http://www.w3.org/2000/svg" xmlns:xlink="http://www.w3.org/1999/xlink" x="0px" y="0px"
	 width="100%" viewBox="0 0 224 224" enable-background="new 0 0 224 224" xml:space="preserve">
<path fill="#241008" opacity="1.000000" stroke="none" 
	d="
M1.000001,189.000000 
	C1.000000,138.645767 1.000000,88.291542 1.268613,37.251976 
	C3.695705,31.036528 5.854184,25.506422 8.005158,19.987045 
	C7.997654,19.997778 7.982439,20.019091 8.289761,19.865509 
	C9.407105,18.324190 10.217130,16.936453 11.115486,15.463615 
	C11.203819,15.378515 11.557588,15.038568 11.875647,14.869488 
	C12.809009,13.987969 13.424313,13.275529 14.213541,12.377373 
	C15.105518,11.469651 15.823570,10.747646 16.892620,9.957083 
	C18.169415,9.253646 19.095213,8.618767 20.009916,7.991085 
	C19.998821,7.998281 19.976580,8.012588 20.350391,7.969052 
	C26.149469,5.617012 31.574736,3.308506 37.000000,1.000000 
	C87.354225,1.000000 137.708450,1.000000 188.745453,1.267833 
	C194.624847,3.695382 199.821472,5.855097 205.008316,8.008259 
	C204.998535,8.001703 204.978622,7.989157 205.231598,8.230598 
	C206.809372,8.989260 208.134171,9.506478 209.674561,10.230789 
	C211.584274,12.142022 213.278397,13.846161 215.030243,15.922110 
	C216.064484,17.535627 217.041016,18.777334 218.009918,20.008451 
	C218.002319,19.997860 217.987350,19.976511 218.030960,20.350323 
	C220.383041,26.149422 222.691528,31.574711 225.000000,37.000000 
	C225.000000,87.354225 225.000000,137.708450 224.731857,188.748352 
	C222.304962,194.963867 220.146194,200.493683 217.994873,206.012817 
	C218.002319,206.002151 218.017456,205.980957 217.711029,206.135651 
	C216.593826,207.676102 215.783066,209.061859 214.766083,210.664398 
	C212.859406,212.579468 211.158997,214.277756 209.086685,216.018677 
	C207.469406,216.711182 206.224014,217.361038 204.988586,218.004608 
	C204.998535,217.998322 205.018036,217.985107 204.666870,218.083557 
	C199.210480,220.454666 194.105240,222.727325 189.000000,225.000000 
	C138.645767,225.000000 88.291542,225.000000 37.251404,224.732361 
	C31.370989,222.304871 26.176481,220.145035 20.991713,217.991760 
	C21.001451,217.998322 21.021324,218.010818 20.768385,217.769348 
	C19.190664,217.010681 17.865881,216.493484 16.325499,215.769196 
	C14.415761,213.857986 12.721625,212.153870 10.969760,210.077942 
	C9.935513,208.464401 8.958995,207.222672 7.990069,205.991547 
	C7.997662,206.002151 8.012625,206.023483 7.969028,205.649658 
	C5.616955,199.850571 3.308478,194.425278 1.000001,189.000000 
M70.313637,196.884293 
	C74.539062,198.696854 78.764496,200.509430 83.795418,202.661697 
	C93.195648,203.093781 102.595879,203.525864 112.833145,203.930984 
	C121.283943,202.932816 129.455841,201.308716 135.491699,193.487686 
	C137.053299,191.345428 138.614883,189.203156 140.666946,186.565842 
	C149.938171,166.010986 150.492752,144.408035 148.200317,122.508904 
	C147.968826,120.297501 146.595917,118.205574 145.537216,115.435226 
	C140.876724,108.416939 133.477036,108.009163 126.137428,107.247688 
	C117.730873,106.375519 109.350090,105.254898 100.347343,103.896652 
	C93.651344,101.057228 91.205612,95.465942 91.184036,88.990486 
	C92.399940,90.037025 93.615852,91.083565 95.313568,92.645187 
	C106.161514,98.969131 117.742470,93.605850 118.709366,81.879364 
	C121.488876,80.909821 122.478294,82.216858 123.171623,84.817612 
	C124.738411,90.694847 127.628159,92.687447 134.855911,92.960426 
	C144.194183,92.478897 150.758881,87.315163 152.057892,79.605049 
	C152.543961,76.719933 151.722778,75.525391 148.699478,76.033295 
	C143.826462,76.851944 138.935730,77.564972 133.215195,78.297859 
	C128.139496,78.877342 123.063789,79.456825 117.190956,79.902962 
	C110.460823,79.924599 103.730690,79.946228 96.201103,79.891670 
	C95.131744,79.932571 94.062386,79.973473 93.040161,79.317001 
	C94.349068,78.447159 95.657982,77.577316 97.718254,76.652962 
	C99.624420,76.093903 101.508850,75.441429 103.440506,74.991898 
	C111.931450,73.015900 120.436028,71.098534 129.651367,69.501678 
	C136.528030,70.316147 143.392593,71.639145 150.284744,71.803291 
	C157.296280,71.970284 164.335007,70.995750 172.039261,70.297195 
	C178.396957,66.371193 178.869019,62.212070 172.347244,58.659863 
	C165.644394,55.009037 158.160049,52.793049 150.383881,49.633610 
	C148.713654,48.240349 146.507065,47.160404 145.475296,45.394180 
	C142.559784,40.403309 140.125992,35.131027 137.269485,29.319551 
	C136.778046,28.553595 136.286606,27.787638 135.582733,26.413559 
	C134.084320,24.897264 132.585907,23.380972 130.561188,21.375490 
	C126.967705,20.884787 123.119812,19.330641 119.831902,20.117226 
	C112.185013,21.946636 104.713219,22.714758 96.390282,20.735451 
	C90.848114,20.353729 86.597580,23.038345 83.940392,27.399483 
	C79.506866,34.676033 75.743675,42.361012 71.050247,50.110737 
	C69.034630,50.725327 67.019020,51.339916 64.216019,51.989143 
	C60.448074,53.587490 56.680126,55.185837 52.244492,57.008209 
	C44.711067,61.740707 43.994576,66.435921 50.135479,71.021507 
	C51.047531,71.702568 52.091408,72.207077 53.578903,73.260742 
	C55.726212,75.175522 57.873520,77.090294 59.741314,79.722137 
	C59.252144,83.484360 58.762974,87.246574 58.115467,91.674370 
	C57.726818,92.741959 57.338169,93.809555 56.469551,95.356850 
	C52.967064,101.538231 49.464577,107.719620 45.962086,113.901009 
	C46.378155,114.428230 46.794224,114.955452 47.210293,115.482674 
	C50.139412,114.973671 53.068535,114.464661 56.765778,113.953590 
	C58.511799,113.611115 60.257820,113.268639 62.588234,113.159088 
	C63.100716,113.774811 63.613197,114.390526 63.797523,115.677650 
	C63.495476,116.623146 63.010860,117.552292 62.924419,118.517105 
	C62.623402,121.876839 62.460285,125.248940 62.244743,128.616333 
	C65.862854,128.178055 69.480957,127.739792 73.836868,127.588486 
	C83.104912,129.129288 92.384735,130.603455 101.636070,132.238785 
	C106.315849,133.066025 110.944130,134.184647 116.017395,135.722580 
	C118.606232,139.730103 122.155090,143.421036 123.600952,147.805481 
	C127.670952,160.147339 125.123848,171.439621 115.439056,181.309601 
	C113.621437,182.254181 111.803818,183.198776 109.110054,184.175781 
	C107.067360,184.172379 105.024673,184.168961 102.359787,183.846939 
	C100.266174,182.821899 98.172562,181.796844 95.792992,180.326218 
	C95.271317,179.855179 94.749649,179.384140 93.990974,178.370346 
	C93.499046,177.527557 93.007118,176.684753 92.291069,175.237015 
	C91.590759,174.461761 90.890450,173.686508 90.134926,172.177460 
	C90.017181,171.453690 89.899445,170.729919 89.684738,169.375763 
	C88.670036,165.188126 86.306747,166.822830 83.361359,168.176849 
	C81.907753,168.797211 80.454147,169.417572 78.270638,170.156158 
	C74.499321,171.734024 70.728004,173.311890 66.242645,175.008606 
	C61.081806,175.835129 59.412182,179.211960 61.483692,183.486984 
	C63.704849,188.070877 67.034569,192.117615 70.313637,196.884293 
z"/>
<path fill="#240F08" opacity="1.000000" stroke="none" 
	d="
M11.027487,210.449753 
	C12.721625,212.153870 14.415761,213.857986 16.624161,215.983810 
	C18.432724,216.940613 19.727024,217.475708 21.021324,218.010818 
	C21.021324,218.010818 21.001451,217.998322 21.157326,218.287460 
	C25.542135,220.717728 29.771069,222.858856 34.000000,225.000000 
	C23.073442,225.000000 12.146886,225.000000 1.000000,225.000000 
	C1.000000,214.313446 1.000000,203.625381 1.168218,192.787659 
	C3.561832,197.099838 5.787228,201.561661 8.012624,206.023483 
	C8.012625,206.023483 7.997662,206.002151 8.104732,206.304962 
	C9.150361,207.888428 10.088923,209.169098 11.027487,210.449753 
z"/>
<path fill="#240F08" opacity="1.000000" stroke="none" 
	d="
M214.972504,15.550297 
	C213.278397,13.846161 211.584274,12.142022 209.375885,10.016188 
	C207.567291,9.059381 206.272949,8.524270 204.978622,7.989157 
	C204.978622,7.989157 204.998535,8.001703 204.842575,7.712631 
	C200.457748,5.282372 196.228867,3.141185 192.000000,0.999998 
	C202.926559,1.000000 213.853119,1.000000 225.000000,1.000000 
	C225.000000,11.686553 225.000000,22.374619 224.831665,33.212391 
	C222.438019,28.900234 220.212692,24.438372 217.987350,19.976509 
	C217.987350,19.976511 218.002319,19.997860 217.895264,19.695042 
	C216.849640,18.111580 215.911072,16.830936 214.972504,15.550297 
z"/>
<path fill="#240F08" opacity="1.000000" stroke="none" 
	d="
M209.458588,215.976044 
	C211.158997,214.277756 212.859406,212.579468 215.003082,210.400497 
	C216.303375,208.606857 217.160416,207.293915 218.017456,205.980957 
	C218.017456,205.980957 218.002319,206.002151 218.252136,205.788803 
	C220.667953,201.050308 222.833984,196.525162 225.000000,192.000000 
	C225.000000,202.926559 225.000000,213.853119 225.000000,225.000000 
	C214.313446,225.000000 203.625381,225.000000 192.785339,224.827377 
	C196.761597,222.431549 200.889816,220.208328 205.018036,217.985107 
	C205.018036,217.985107 204.998535,217.998322 205.334686,217.950073 
	C206.933411,217.259888 208.195999,216.617966 209.458588,215.976044 
z"/>
<path fill="#240F08" opacity="1.000000" stroke="none" 
	d="
M11.557587,15.038567 
	C11.557588,15.038568 11.203819,15.378515 10.878592,15.727751 
	C9.696389,17.391022 8.839414,18.705055 7.982439,20.019091 
	C7.982439,20.019091 7.997654,19.997778 7.747989,20.211193 
	C5.332215,24.949739 3.166107,29.474869 1.000000,34.000000 
	C1.000000,23.073441 1.000000,12.146883 1.000000,1.000000 
	C11.686553,1.000000 22.374619,1.000000 33.214634,1.172663 
	C28.903250,3.567747 24.439915,5.790168 19.976580,8.012589 
	C19.976580,8.012588 19.998821,7.998281 19.698761,8.108091 
	C18.446342,8.820482 17.493982,9.423062 16.541622,10.025641 
	C15.823570,10.747646 15.105518,11.469651 13.955389,12.618567 
	C12.868071,13.709839 12.212829,14.374203 11.557587,15.038567 
z"/>
<path fill="#010000" opacity="1.000000" stroke="none" 
	d="
M204.666870,218.083557 
	C200.889816,220.208328 196.761597,222.431549 192.316681,224.827377 
	C191.250000,225.000000 190.500000,225.000000 189.375000,225.000000 
	C194.105240,222.727325 199.210480,220.454666 204.666870,218.083557 
z"/>
<path fill="#010000" opacity="1.000000" stroke="none" 
	d="
M7.969027,205.649658 
	C5.787228,201.561661 3.561832,197.099838 1.168218,192.319000 
	C1.000000,191.250000 1.000000,190.500000 1.000001,189.375000 
	C3.308478,194.425278 5.616955,199.850571 7.969027,205.649658 
z"/>
<path fill="#010000" opacity="1.000000" stroke="none" 
	d="
M1.000000,34.375000 
	C3.166107,29.474869 5.332215,24.949739 7.755492,20.200462 
	C5.854184,25.506422 3.695705,31.036528 1.268613,36.783318 
	C1.000000,36.250000 1.000000,35.500000 1.000000,34.375000 
z"/>
<path fill="#010000" opacity="1.000000" stroke="none" 
	d="
M218.030960,20.350321 
	C220.212692,24.438372 222.438019,28.900234 224.831665,33.681049 
	C225.000000,34.750000 225.000000,35.500000 225.000000,36.625000 
	C222.691528,31.574711 220.383041,26.149422 218.030960,20.350321 
z"/>
<path fill="#010000" opacity="1.000000" stroke="none" 
	d="
M225.000000,191.625000 
	C222.833984,196.525162 220.667953,201.050308 218.244690,205.799469 
	C220.146194,200.493683 222.304962,194.963867 224.731857,189.217010 
	C225.000000,189.750000 225.000000,190.500000 225.000000,191.625000 
z"/>
<path fill="#010000" opacity="1.000000" stroke="none" 
	d="
M191.625000,0.999998 
	C196.228867,3.141185 200.457748,5.282372 204.852356,7.719187 
	C199.821472,5.855097 194.624847,3.695382 189.214111,1.267833 
	C189.750000,1.000000 190.500000,1.000000 191.625000,0.999998 
z"/>
<path fill="#010000" opacity="1.000000" stroke="none" 
	d="
M20.350391,7.969053 
	C24.439915,5.790168 28.903250,3.567747 33.683292,1.172663 
	C34.750000,1.000000 35.500000,1.000000 36.625000,1.000000 
	C31.574736,3.308506 26.149469,5.617012 20.350391,7.969053 
z"/>
<path fill="#010000" opacity="1.000000" stroke="none" 
	d="
M34.375000,225.000000 
	C29.771069,222.858856 25.542135,220.717728 21.147587,218.280899 
	C26.176481,220.145035 31.370989,222.304871 36.782745,224.732361 
	C36.250000,225.000000 35.500000,225.000000 34.375000,225.000000 
z"/>
<path fill="#079B15" opacity="1.000000" stroke="none" 
	d="
M94.227982,178.913086 
	C94.749649,179.384140 95.271317,179.855179 96.055801,180.878906 
	C98.545341,183.287933 100.772057,185.144272 102.999390,187.000305 
	C103.000000,187.000000 102.999580,187.001038 103.198593,187.276428 
	C110.385376,193.505020 118.244720,193.294266 124.245605,186.996490 
	C124.491173,186.993668 124.982323,186.990051 125.294632,186.857910 
	C127.735931,184.479858 129.864914,182.233948 131.996063,179.740997 
	C131.998230,179.493988 132.003830,178.999954 132.230621,178.828003 
	C132.969864,178.100067 133.482285,177.544113 133.996094,176.741119 
	C133.997452,176.494095 134.001816,176.000046 134.262268,175.783218 
	C137.599380,171.909286 139.172562,167.835587 138.004425,162.626923 
	C138.006042,161.501083 138.007278,160.750519 138.190659,159.834442 
	C138.576004,158.776550 138.779190,157.884155 138.980789,156.620148 
	C138.981110,155.505310 138.983017,154.762100 138.966919,153.610077 
	C137.636887,149.801041 136.324875,146.400818 134.928070,142.668427 
	C134.559601,141.229416 134.275894,140.122543 133.822556,138.786224 
	C133.101730,138.037827 132.550537,137.518875 131.800262,136.739639 
	C129.734039,134.653107 127.866928,132.826859 125.808502,130.724274 
	C122.412399,129.296982 119.207603,128.146027 115.668762,126.993271 
	C114.889328,126.989151 114.443932,126.986847 113.730179,126.746635 
	C110.308571,126.337906 107.155334,126.167076 103.647858,125.915176 
	C101.864830,125.561104 100.436043,125.288094 98.664703,124.881622 
	C95.548553,124.497963 92.774933,124.247772 89.667648,123.995514 
	C88.889076,123.990654 88.444176,123.987854 87.783585,123.730171 
	C83.046265,119.316788 78.524643,115.158295 73.815605,110.787056 
	C73.085617,110.048775 72.543037,109.523247 71.868553,108.664207 
	C68.938828,103.928375 69.100975,99.462723 70.818619,94.635323 
	C71.771957,91.956009 71.642166,88.891289 72.002197,85.666763 
	C72.006317,84.888535 72.008797,84.443840 72.245354,83.741852 
	C74.836304,79.878593 73.936348,76.780502 70.830353,73.728409 
	C69.438263,71.974876 68.216141,70.492874 66.918869,68.653549 
	C65.503670,63.409325 68.144073,60.998695 72.192619,59.113636 
	C75.257538,57.686577 78.073410,55.724632 81.255638,53.829575 
	C82.340813,52.772305 83.170456,51.886177 84.227295,50.828011 
	C84.967659,50.099655 85.480827,49.543343 86.127457,48.668423 
	C87.174843,46.233273 88.088783,44.116734 89.264359,41.818985 
	C90.347549,40.419922 91.169098,39.202068 92.092445,37.679115 
	C92.797119,36.249702 93.399986,35.125393 94.299118,33.866173 
	C95.730446,32.488663 96.865517,31.246069 98.247566,30.000580 
	C98.494545,29.997684 98.988510,29.993494 99.333603,29.907242 
	C101.452133,28.885931 103.225555,27.950872 105.399200,27.015041 
	C106.866669,27.013947 107.933922,27.013624 109.269585,27.251110 
	C112.805450,29.585855 115.965164,29.546682 119.374496,27.010799 
	C120.500961,27.008270 121.251945,27.006681 122.382698,27.135017 
	C127.675781,28.166506 132.589081,29.068068 137.502396,29.969627 
	C140.125992,35.131027 142.559784,40.403309 145.475296,45.394180 
	C146.507065,47.160404 148.713654,48.240349 150.837433,50.105629 
	C154.823639,52.843758 158.450058,54.979595 161.851654,57.427814 
	C163.711395,58.766304 165.190857,60.633194 166.841797,62.261803 
	C164.614319,63.361126 162.422607,65.287796 160.151825,65.385994 
	C155.551544,65.584946 150.891647,64.933968 146.286072,64.384155 
	C131.581818,62.628746 117.494576,65.110489 103.987473,70.806023 
	C101.296295,71.940804 99.289345,74.698257 96.966888,76.707474 
	C95.657982,77.577316 94.349068,78.447159 92.994293,80.042419 
	C92.141502,83.421928 91.334587,86.076012 90.527664,88.730095 
	C91.205612,95.465942 93.651344,101.057228 100.802841,104.363022 
	C105.226738,110.281776 111.495613,110.671501 117.269821,111.724274 
	C126.713593,113.446091 136.253418,114.641014 145.752716,116.058197 
	C146.595917,118.205574 147.968826,120.297501 148.200317,122.508904 
	C150.492752,144.408035 149.938171,166.010986 140.094269,186.936630 
	C133.557541,190.045898 127.833321,194.123993 121.579460,195.243546 
	C108.627777,197.562119 95.396538,198.285095 82.722221,191.898743 
	C81.978912,191.525406 81.488258,191.266678 80.826828,190.779449 
	C80.102989,190.033783 79.549911,189.516632 78.993423,188.756241 
	C78.989998,188.512985 78.986732,188.026443 78.871643,187.766541 
	C78.497307,187.000931 78.238068,186.495255 77.975395,185.659790 
	C77.972046,184.890289 77.972137,184.450562 78.196884,183.756287 
	C82.396881,177.516602 88.163292,177.701111 94.227982,178.913086 
M140.671997,146.694794 
	C141.459518,148.053833 142.247040,149.412857 143.720352,151.955399 
	C144.728516,149.434418 145.653442,148.168839 145.676712,146.886917 
	C145.794281,140.406708 146.016190,133.896851 145.532928,127.447487 
	C145.161499,122.490570 141.882629,119.216751 136.989014,118.231903 
	C133.263123,117.482056 129.413574,117.317261 125.611069,116.983017 
	C115.414993,116.086739 105.450897,114.682388 97.136879,107.783485 
	C84.407677,97.220894 84.162300,72.762352 104.555367,66.504211 
	C116.738113,62.765625 128.745422,59.121262 141.659714,59.971485 
	C143.141129,60.069012 144.673996,59.974815 146.132660,59.701160 
	C148.872299,59.187176 149.892700,57.685596 148.299683,55.071301 
	C144.500702,48.836773 140.653290,42.631390 136.897507,36.371010 
	C134.008560,31.555540 130.001221,29.558582 124.317970,30.379215 
	C120.387466,30.946760 116.316887,31.260248 112.377747,30.910885 
	C102.527367,30.037251 96.091934,34.238705 92.406982,43.180016 
	C88.906769,51.673035 83.647011,58.251549 74.508949,61.445686 
	C69.829964,63.081184 69.222656,65.744682 72.188019,69.539345 
	C76.282074,74.778351 76.524261,80.556320 75.450500,86.608017 
	C74.841431,90.040718 73.204498,93.379341 73.111725,96.789749 
	C73.024300,100.004120 74.115784,103.336746 75.158524,106.460503 
	C75.707100,108.103836 77.580505,109.269524 78.303680,110.896286 
	C81.030098,117.029373 85.923630,119.906418 92.292282,120.739555 
	C95.915062,121.213478 99.557968,121.536491 103.177208,122.033783 
	C109.089844,122.846214 115.181610,123.091614 120.854973,124.749458 
	C131.414566,127.835175 136.501526,136.519485 140.671997,146.694794 
M83.122459,188.419495 
	C87.840729,190.208374 92.470985,192.320648 97.317192,193.639374 
	C99.492668,194.231339 102.294640,192.734390 99.978256,189.912811 
	C97.271606,186.615829 94.051109,183.476974 90.430740,181.310059 
	C88.734276,180.294678 85.299820,181.192337 83.209854,182.286560 
	C82.305939,182.759811 82.810333,185.922958 83.122459,188.419495 
z"/>
<path fill="#057E11" opacity="1.000000" stroke="none" 
	d="
M97.039467,20.888411 
	C104.713219,22.714758 112.185013,21.946636 119.831902,20.117226 
	C123.119812,19.330641 126.967705,20.884787 130.450409,21.769682 
	C124.253372,22.935244 118.093323,24.703312 112.097031,24.259398 
	C101.380798,23.466057 93.172318,26.702801 88.591240,36.431255 
	C83.981171,46.221291 78.162788,54.197327 66.921738,56.650372 
	C66.454155,56.752407 66.036522,57.104492 65.607895,57.360634 
	C59.419537,61.058708 58.309139,65.870674 63.478966,70.716965 
	C69.357864,76.227959 69.824295,82.435829 67.829903,89.432701 
	C66.826790,92.951889 65.217697,96.326477 64.507889,99.890968 
	C64.056435,102.158028 63.939278,105.183609 65.087715,106.947418 
	C68.515137,112.211388 72.474693,117.164001 76.585007,121.928886 
	C77.995415,123.563904 80.351791,124.952187 82.469658,125.311409 
	C92.941971,127.087685 103.479820,128.476898 113.993240,130.011627 
	C122.036423,131.185745 127.579063,135.643570 131.406250,142.736740 
	C136.477036,152.134796 136.032791,161.792175 132.460617,171.259720 
	C129.859344,178.154007 124.822075,183.543106 117.525429,185.693893 
	C115.353416,186.334106 112.517769,184.722961 109.986198,184.143372 
	C111.803818,183.198776 113.621437,182.254181 116.132980,181.144623 
	C119.817230,179.137131 123.513367,177.891724 125.669281,175.343323 
	C132.962692,166.722107 132.874451,149.901917 126.026398,140.858948 
	C123.412025,137.406631 120.216591,134.968735 115.595695,135.171524 
	C110.944130,134.184647 106.315849,133.066025 101.636070,132.238785 
	C92.384735,130.603455 83.104912,129.129288 73.361282,127.146439 
	C69.965691,122.805008 67.045685,118.905624 64.125679,115.006248 
	C63.613197,114.390526 63.100716,113.774811 62.165375,112.711304 
	C58.715088,107.216240 59.369862,102.370918 61.773518,97.153229 
	C66.035294,87.902061 68.502335,78.898544 58.726414,70.742950 
	C54.275124,67.029442 55.571934,60.868965 60.149067,56.784710 
	C61.849739,55.267166 63.389996,53.569847 65.003403,51.954506 
	C67.019020,51.339916 69.034630,50.725327 71.745987,49.933968 
	C75.122047,47.722198 78.823700,46.243927 80.292854,43.548721 
	C84.858475,35.172939 89.766045,27.200243 97.039467,20.888411 
z"/>
<path fill="#068D13" opacity="1.000000" stroke="none" 
	d="
M109.548126,184.159576 
	C112.517769,184.722961 115.353416,186.334106 117.525429,185.693893 
	C124.822075,183.543106 129.859344,178.154007 132.460617,171.259720 
	C136.032791,161.792175 136.477036,152.134796 131.406250,142.736740 
	C127.579063,135.643570 122.036423,131.185745 113.993240,130.011627 
	C103.479820,128.476898 92.941971,127.087685 82.469658,125.311409 
	C80.351791,124.952187 77.995415,123.563904 76.585007,121.928886 
	C72.474693,117.164001 68.515137,112.211388 65.087715,106.947418 
	C63.939278,105.183609 64.056435,102.158028 64.507889,99.890968 
	C65.217697,96.326477 66.826790,92.951889 67.829903,89.432701 
	C69.824295,82.435829 69.357864,76.227959 63.478966,70.716965 
	C58.309139,65.870674 59.419537,61.058708 65.607895,57.360634 
	C66.036522,57.104492 66.454155,56.752407 66.921738,56.650372 
	C78.162788,54.197327 83.981171,46.221291 88.591240,36.431255 
	C93.172318,26.702801 101.380798,23.466057 112.097031,24.259398 
	C118.093323,24.703312 124.253372,22.935244 130.713562,22.014277 
	C132.585907,23.380972 134.084320,24.897264 135.283264,26.676315 
	C130.656830,26.961081 126.329872,26.983086 122.002922,27.005091 
	C121.251945,27.006681 120.500961,27.008270 118.920624,27.008228 
	C115.061234,27.008835 112.031204,27.011068 109.001175,27.013304 
	C107.933922,27.013624 106.866669,27.013947 105.045090,27.072477 
	C102.523354,28.084955 100.755936,29.039227 98.988510,29.993496 
	C98.988510,29.993494 98.494545,29.997684 97.950806,30.134565 
	C96.272331,31.514660 95.137596,32.757874 94.002861,34.001087 
	C93.399986,35.125393 92.797119,36.249702 91.831558,37.861908 
	C90.646828,39.566601 89.824776,40.783398 89.002724,42.000195 
	C88.088783,44.116734 87.174843,46.233273 85.900604,48.841171 
	C85.026894,49.888374 84.513504,50.444214 84.000107,51.000053 
	C83.170456,51.886177 82.340813,52.772305 80.909454,53.938362 
	C75.908768,56.082954 71.281075,57.550507 67.171471,59.917549 
	C62.529987,62.590954 62.697662,65.686081 66.994026,69.010864 
	C68.216141,70.492874 69.438263,71.974876 70.918594,74.125595 
	C71.454964,77.862579 71.733124,80.930862 72.011284,83.999138 
	C72.008797,84.443840 72.006317,84.888535 71.848709,86.000359 
	C70.397224,90.712593 69.013420,94.732292 67.828156,98.809692 
	C66.540115,103.240646 67.377831,106.926315 72.000458,108.997711 
	C72.543037,109.523247 73.085617,110.048775 73.922562,111.129456 
	C76.237007,118.668900 80.524208,123.112946 87.999283,123.985062 
	C88.444176,123.987854 88.889076,123.990654 89.996025,124.147049 
	C93.441139,124.538795 96.224190,124.776939 99.007248,125.015076 
	C100.436043,125.288094 101.864830,125.561104 104.027008,126.046715 
	C107.839783,126.501053 110.919159,126.742790 113.998543,126.984535 
	C114.443932,126.986847 114.889328,126.989151 115.987930,127.145996 
	C119.760696,128.533890 122.880249,129.767258 125.999809,131.000610 
	C127.866928,132.826859 129.734039,134.653107 131.970367,136.968414 
	C132.890457,137.976868 133.441315,138.496277 133.992188,139.015686 
	C134.275894,140.122543 134.559601,141.229416 135.024170,143.036743 
	C136.464996,147.164429 137.724960,150.591660 138.984924,154.018875 
	C138.983017,154.762100 138.981110,155.505310 138.856857,156.911987 
	C138.492523,158.383621 138.250519,159.191788 138.008514,159.999954 
	C138.007278,160.750519 138.006042,161.501083 137.862946,162.968384 
	C136.481339,167.790100 135.241577,171.895081 134.001816,176.000046 
	C134.001816,176.000046 133.997452,176.494095 133.769409,176.913696 
	C133.028854,177.888840 132.516342,178.444397 132.003830,178.999954 
	C132.003830,178.999954 131.998230,179.493988 131.686737,179.877121 
	C129.244263,182.503510 127.113297,184.746780 124.982323,186.990051 
	C124.982323,186.990051 124.491173,186.993668 123.869209,187.096848 
	C116.473015,189.678528 109.726082,189.379105 102.999580,187.001038 
	C102.999580,187.001038 103.000000,187.000000 102.996994,186.645920 
	C102.989983,185.583084 102.985985,184.874313 102.981979,184.165558 
	C105.024673,184.168961 107.067360,184.172379 109.548126,184.159576 
z"/>
<path fill="#078B13" opacity="1.000000" stroke="none" 
	d="
M97.342575,76.680222 
	C99.289345,74.698257 101.296295,71.940804 103.987473,70.806023 
	C117.494576,65.110489 131.581818,62.628746 146.286072,64.384155 
	C150.891647,64.933968 155.551544,65.584946 160.151825,65.385994 
	C162.422607,65.287796 164.614319,63.361126 166.841797,62.261803 
	C165.190857,60.633194 163.711395,58.766304 161.851654,57.427814 
	C158.450058,54.979595 154.823639,52.843758 151.154327,50.263405 
	C158.160049,52.793049 165.644394,55.009037 172.347244,58.659863 
	C178.869019,62.212070 178.396957,66.371193 171.296936,70.212196 
	C158.172791,69.140617 145.795944,68.077827 133.402481,67.270332 
	C131.960709,67.176392 130.426834,68.495766 128.935669,69.159912 
	C120.436028,71.098534 111.931450,73.015900 103.440506,74.991898 
	C101.508850,75.441429 99.624420,76.093903 97.342575,76.680222 
z"/>
<path fill="#067E11" opacity="1.000000" stroke="none" 
	d="
M118.054489,82.113586 
	C117.742470,93.605850 106.161514,98.969131 95.235138,92.029404 
	C95.771317,87.598373 96.385941,83.783112 97.000565,79.967857 
	C103.730690,79.946228 110.460823,79.924599 117.595062,80.315964 
	C118.017616,81.190514 118.036049,81.652046 118.054489,82.113586 
z"/>
<path fill="#057610" opacity="1.000000" stroke="none" 
	d="
M64.609711,51.971825 
	C63.389996,53.569847 61.849739,55.267166 60.149067,56.784710 
	C55.571934,60.868965 54.275124,67.029442 58.726414,70.742950 
	C68.502335,78.898544 66.035294,87.902061 61.773518,97.153229 
	C59.369862,102.370918 58.715088,107.216240 61.873177,112.594841 
	C60.257820,113.268639 58.511799,113.611115 56.319649,113.549995 
	C56.232189,107.056648 56.590855,100.966896 56.949524,94.877144 
	C57.338169,93.809555 57.726818,92.741959 58.470818,91.156609 
	C62.439087,87.091034 62.860592,83.215500 60.020828,79.005074 
	C57.873520,77.090294 55.726212,75.175522 53.276749,72.622322 
	C52.953789,66.917328 52.932983,61.850754 52.912178,56.784180 
	C56.680126,55.185837 60.448074,53.587490 64.609711,51.971825 
z"/>
<path fill="#068B13" opacity="1.000000" stroke="none" 
	d="
M78.986732,188.026443 
	C78.986732,188.026443 78.989998,188.512985 79.163635,188.985184 
	C79.890709,189.974243 80.444153,190.491104 80.997604,191.007950 
	C81.488258,191.266678 81.978912,191.525406 82.918686,192.176071 
	C86.106438,194.003281 88.696877,195.963562 91.608643,196.785431 
	C106.384407,200.956055 120.873650,199.210571 135.099518,194.010193 
	C129.455841,201.308716 121.283943,202.932816 112.137985,203.706512 
	C106.593513,202.640884 101.759766,201.692886 96.891273,200.983307 
	C89.361839,199.885895 82.207153,197.924118 76.828354,192.132126 
	C71.231216,186.105042 72.099350,179.362793 79.275291,175.744827 
	C82.555862,174.090820 86.530365,173.813141 90.190140,172.911255 
	C90.890450,173.686508 91.590759,174.461761 91.930252,175.560913 
	C88.833344,176.260117 85.955177,176.226990 83.398026,177.116608 
	C80.368408,178.170593 77.099098,179.622437 77.972229,184.010849 
	C77.972137,184.450562 77.972046,184.890289 77.979141,185.858551 
	C78.319786,186.933548 78.653259,187.479996 78.986732,188.026443 
z"/>
<path fill="#067C11" opacity="1.000000" stroke="none" 
	d="
M90.162537,172.544357 
	C86.530365,173.813141 82.555862,174.090820 79.275291,175.744827 
	C72.099350,179.362793 71.231216,186.105042 76.828354,192.132126 
	C82.207153,197.924118 89.361839,199.885895 96.891273,200.983307 
	C101.759766,201.692886 106.593513,202.640884 111.719467,203.720001 
	C102.595879,203.525864 93.195648,203.093781 83.234001,202.243973 
	C79.479057,198.718475 76.103973,195.773880 73.132072,192.466934 
	C67.914963,186.661652 68.429497,180.216705 74.154602,174.954987 
	C75.846863,173.399689 77.389389,171.681473 79.000534,170.037918 
	C80.454147,169.417572 81.907753,168.797211 84.003700,168.260223 
	C86.357933,168.897781 88.069817,169.451965 89.781708,170.006149 
	C89.899445,170.729919 90.017181,171.453690 90.162537,172.544357 
z"/>
<path fill="#067110" opacity="1.000000" stroke="none" 
	d="
M115.806549,135.447052 
	C120.216591,134.968735 123.412025,137.406631 126.026398,140.858948 
	C132.874451,149.901917 132.962692,166.722107 125.669281,175.343323 
	C123.513367,177.891724 119.817230,179.137131 116.443512,181.003815 
	C125.123848,171.439621 127.670952,160.147339 123.600952,147.805481 
	C122.155090,143.421036 118.606232,139.730103 115.806549,135.447052 
z"/>
<path fill="#067C11" opacity="1.000000" stroke="none" 
	d="
M134.052475,78.322617 
	C138.935730,77.564972 143.826462,76.851944 148.699478,76.033295 
	C151.722778,75.525391 152.543961,76.719933 152.057892,79.605049 
	C150.758881,87.315163 144.194183,92.478897 134.396271,92.548012 
	C133.975250,87.531273 134.013855,82.926941 134.052475,78.322617 
z"/>
<path fill="#078412" opacity="1.000000" stroke="none" 
	d="
M145.644958,115.746712 
	C136.253418,114.641014 126.713593,113.446091 117.269821,111.724274 
	C111.495613,110.671501 105.226738,110.281776 101.108231,104.535805 
	C109.350090,105.254898 117.730873,106.375519 126.137428,107.247688 
	C133.477036,108.009163 140.876724,108.416939 145.644958,115.746712 
z"/>
<path fill="#067110" opacity="1.000000" stroke="none" 
	d="
M96.714874,20.811932 
	C89.766045,27.200243 84.858475,35.172939 80.292854,43.548721 
	C78.823700,46.243927 75.122047,47.722198 72.070000,49.815617 
	C75.743675,42.361012 79.506866,34.676033 83.940392,27.399483 
	C86.597580,23.038345 90.848114,20.353729 96.714874,20.811932 
z"/>
<path fill="#067410" opacity="1.000000" stroke="none" 
	d="
M78.635590,170.097046 
	C77.389389,171.681473 75.846863,173.399689 74.154602,174.954987 
	C68.429497,180.216705 67.914963,186.661652 73.132072,192.466934 
	C76.103973,195.773880 79.479057,198.718475 82.831253,202.074127 
	C78.764496,200.509430 74.539062,198.696854 69.991127,196.273483 
	C65.964005,189.103989 65.463425,182.127029 66.956688,174.889740 
	C70.728004,173.311890 74.499321,171.734024 78.635590,170.097046 
z"/>
<path fill="#067D11" opacity="1.000000" stroke="none" 
	d="
M129.293518,69.330795 
	C130.426834,68.495766 131.960709,67.176392 133.402481,67.270332 
	C145.795944,68.077827 158.172791,69.140617 170.958206,70.324142 
	C164.335007,70.995750 157.296280,71.970284 150.284744,71.803291 
	C143.392593,71.639145 136.528030,70.316147 129.293518,69.330795 
z"/>
<path fill="#066E0F" opacity="1.000000" stroke="none" 
	d="
M133.633835,78.310242 
	C134.013855,82.926941 133.975250,87.531273 133.979797,92.514847 
	C127.628159,92.687447 124.738411,90.694847 123.171623,84.817612 
	C122.478294,82.216858 121.488876,80.909821 118.381927,81.996475 
	C118.036049,81.652046 118.017616,81.190514 117.993637,80.382645 
	C123.063789,79.456825 128.139496,78.877342 133.633835,78.310242 
z"/>
<path fill="#069815" opacity="1.000000" stroke="none" 
	d="
M135.295609,193.748932 
	C120.873650,199.210571 106.384407,200.956055 91.608643,196.785431 
	C88.696877,195.963562 86.106438,194.003281 83.171341,192.290710 
	C95.396538,198.285095 108.627777,197.562119 121.579460,195.243546 
	C127.833321,194.123993 133.557541,190.045898 139.849030,187.184158 
	C138.614883,189.203156 137.053299,191.345428 135.295609,193.748932 
z"/>
<path fill="#066C0F" opacity="1.000000" stroke="none" 
	d="
M63.961601,115.341949 
	C67.045685,118.905624 69.965691,122.805008 72.992378,127.002960 
	C69.480957,127.739792 65.862854,128.178055 62.244743,128.616333 
	C62.460285,125.248940 62.623402,121.876839 62.924419,118.517105 
	C63.010860,117.552292 63.495476,116.623146 63.961601,115.341949 
z"/>
<path fill="#066C0F" opacity="1.000000" stroke="none" 
	d="
M56.709534,95.116997 
	C56.590855,100.966896 56.232189,107.056648 55.935585,113.551025 
	C53.068535,114.464661 50.139412,114.973671 47.210293,115.482674 
	C46.794224,114.955452 46.378155,114.428230 45.962086,113.901009 
	C49.464577,107.719620 52.967064,101.538231 56.709534,95.116997 
z"/>
<path fill="#066D0F" opacity="1.000000" stroke="none" 
	d="
M66.599670,174.949188 
	C65.463425,182.127029 65.964005,189.103989 69.774559,196.030731 
	C67.034569,192.117615 63.704849,188.070877 61.483692,183.486984 
	C59.412182,179.211960 61.081806,175.835129 66.599670,174.949188 
z"/>
<path fill="#066D0F" opacity="1.000000" stroke="none" 
	d="
M52.578335,56.896194 
	C52.932983,61.850754 52.953789,66.917328 53.024445,72.388580 
	C52.091408,72.207077 51.047531,71.702568 50.135479,71.021507 
	C43.994576,66.435921 44.711067,61.740707 52.578335,56.896194 
z"/>
<path fill="#088613" opacity="1.000000" stroke="none" 
	d="
M96.600830,79.929764 
	C96.385941,83.783112 95.771317,87.598373 94.994232,91.771866 
	C93.615852,91.083565 92.399940,90.037025 90.855850,88.860291 
	C91.334587,86.076012 92.141502,83.421928 92.970718,80.391113 
	C94.062386,79.973473 95.131744,79.932571 96.600830,79.929764 
z"/>
<path fill="#069815" opacity="1.000000" stroke="none" 
	d="
M78.196884,183.756287 
	C77.099098,179.622437 80.368408,178.170593 83.398026,177.116608 
	C85.955177,176.226990 88.833344,176.260117 92.042313,175.863403 
	C93.007118,176.684753 93.499046,177.527557 94.109482,178.641724 
	C88.163292,177.701111 82.396881,177.516602 78.196884,183.756287 
z"/>
<path fill="#066C0F" opacity="1.000000" stroke="none" 
	d="
M59.881073,79.363602 
	C62.860592,83.215500 62.439087,87.091034 58.549988,90.823822 
	C58.762974,87.246574 59.252144,83.484360 59.881073,79.363602 
z"/>
<path fill="#069815" opacity="1.000000" stroke="none" 
	d="
M122.382698,27.135017 
	C126.329872,26.983086 130.656830,26.961081 135.389465,26.980377 
	C136.286606,27.787638 136.778046,28.553595 137.385941,29.644590 
	C132.589081,29.068068 127.675781,28.166506 122.382698,27.135017 
z"/>
<path fill="#069815" opacity="1.000000" stroke="none" 
	d="
M102.670883,184.006256 
	C102.985985,184.874313 102.989983,185.583084 102.996384,186.646225 
	C100.772057,185.144272 98.545341,183.287933 96.198784,181.101700 
	C98.172562,181.796844 100.266174,182.821899 102.670883,184.006256 
z"/>
<path fill="#067410" opacity="1.000000" stroke="none" 
	d="
M89.733223,169.690948 
	C88.069817,169.451965 86.357933,168.897781 84.339989,168.205261 
	C86.306747,166.822830 88.670036,165.188126 89.733223,169.690948 
z"/>
<path fill="#010000" opacity="1.000000" stroke="none" 
	d="
M215.030243,15.922106 
	C215.911072,16.830936 216.849640,18.111580 217.902863,19.705633 
	C217.041016,18.777334 216.064484,17.535627 215.030243,15.922106 
z"/>
<path fill="#010000" opacity="1.000000" stroke="none" 
	d="
M217.711029,206.135651 
	C217.160416,207.293915 216.303375,208.606857 215.209320,210.183716 
	C215.783066,209.061859 216.593826,207.676102 217.711029,206.135651 
z"/>
<path fill="#010000" opacity="1.000000" stroke="none" 
	d="
M8.289760,19.865509 
	C8.839414,18.705055 9.696389,17.391022 10.790259,15.812851 
	C10.217130,16.936453 9.407105,18.324190 8.289760,19.865509 
z"/>
<path fill="#010000" opacity="1.000000" stroke="none" 
	d="
M10.969757,210.077942 
	C10.088923,209.169098 9.150361,207.888428 8.097138,206.294373 
	C8.958995,207.222672 9.935513,208.464401 10.969757,210.077942 
z"/>
<path fill="#010000" opacity="1.000000" stroke="none" 
	d="
M209.086685,216.018677 
	C208.195999,216.617966 206.933411,217.259888 205.324738,217.956360 
	C206.224014,217.361038 207.469406,216.711182 209.086685,216.018677 
z"/>
<path fill="#010000" opacity="1.000000" stroke="none" 
	d="
M20.768385,217.769348 
	C19.727024,217.475708 18.432724,216.940613 16.839764,216.190887 
	C17.865881,216.493484 19.190664,217.010681 20.768385,217.769348 
z"/>
<path fill="#010000" opacity="1.000000" stroke="none" 
	d="
M205.231598,8.230599 
	C206.272949,8.524270 207.567291,9.059381 209.160294,9.809095 
	C208.134171,9.506478 206.809372,8.989260 205.231598,8.230599 
z"/>
<path fill="#010000" opacity="1.000000" stroke="none" 
	d="
M16.892620,9.957083 
	C17.493982,9.423062 18.446342,8.820482 19.709858,8.100895 
	C19.095213,8.618767 18.169415,9.253646 16.892620,9.957083 
z"/>
<path fill="#010000" opacity="1.000000" stroke="none" 
	d="
M11.875647,14.869488 
	C12.212829,14.374203 12.868071,13.709839 13.781464,12.804283 
	C13.424313,13.275529 12.809009,13.987969 11.875647,14.869488 
z"/>
<path fill="#07A416" opacity="1.000000" stroke="none" 
	d="
M140.531464,146.365112 
	C136.501526,136.519485 131.414566,127.835175 120.854973,124.749458 
	C115.181610,123.091614 109.089844,122.846214 103.177208,122.033783 
	C99.557968,121.536491 95.915062,121.213478 92.292282,120.739555 
	C85.923630,119.906418 81.030098,117.029373 78.303680,110.896286 
	C77.580505,109.269524 75.707100,108.103836 75.158524,106.460503 
	C74.115784,103.336746 73.024300,100.004120 73.111725,96.789749 
	C73.204498,93.379341 74.841431,90.040718 75.450500,86.608017 
	C76.524261,80.556320 76.282074,74.778351 72.188019,69.539345 
	C69.222656,65.744682 69.829964,63.081184 74.508949,61.445686 
	C83.647011,58.251549 88.906769,51.673035 92.406982,43.180016 
	C96.091934,34.238705 102.527367,30.037251 112.377747,30.910885 
	C116.316887,31.260248 120.387466,30.946760 124.317970,30.379215 
	C130.001221,29.558582 134.008560,31.555540 136.897507,36.371010 
	C140.653290,42.631390 144.500702,48.836773 148.299683,55.071301 
	C149.892700,57.685596 148.872299,59.187176 146.132660,59.701160 
	C144.673996,59.974815 143.141129,60.069012 141.659714,59.971485 
	C128.745422,59.121262 116.738113,62.765625 104.555367,66.504211 
	C84.162300,72.762352 84.407677,97.220894 97.136879,107.783485 
	C105.450897,114.682388 115.414993,116.086739 125.611069,116.983017 
	C129.413574,117.317261 133.263123,117.482056 136.989014,118.231903 
	C141.882629,119.216751 145.161499,122.490570 145.532928,127.447487 
	C146.016190,133.896851 145.794281,140.406708 145.676712,146.886917 
	C145.653442,148.168839 144.728516,149.434418 143.720352,151.955399 
	C142.247040,149.412857 141.459518,148.053833 140.531464,146.365112 
M139.345490,56.577114 
	C142.271835,55.728931 142.329773,53.773212 141.188782,51.507359 
	C138.868271,46.899094 136.550339,42.285942 134.074524,37.760605 
	C132.091187,34.135433 128.895935,32.923309 124.805069,33.361965 
	C121.007271,33.769199 117.128036,34.255608 113.357361,33.911175 
	C104.090813,33.064735 98.095963,36.786156 94.718758,45.443317 
	C91.666519,53.267433 86.874908,59.712864 78.808212,63.172741 
	C75.997856,64.378128 75.971016,66.407021 76.554482,69.336967 
	C77.669167,74.934395 79.450134,81.050491 78.228020,86.318832 
	C76.053299,95.693695 76.038177,103.920486 82.598274,111.422813 
	C82.703926,111.543640 82.740852,111.722527 82.820122,111.868759 
	C85.854996,117.466713 98.630814,120.768875 104.894585,117.085373 
	C103.325500,116.061874 101.947792,115.269859 100.688942,114.320267 
	C97.916115,112.228645 94.968346,110.296631 92.506271,107.877777 
	C81.375450,96.942375 81.026054,69.279411 103.453949,63.483055 
	C115.074707,60.479740 126.392143,56.528374 139.345490,56.577114 
z"/>
<path fill="#07A316" opacity="1.000000" stroke="none" 
	d="
M82.898735,188.141861 
	C82.810333,185.922958 82.305939,182.759811 83.209854,182.286560 
	C85.299820,181.192337 88.734276,180.294678 90.430740,181.310059 
	C94.051109,183.476974 97.271606,186.615829 99.978256,189.912811 
	C102.294640,192.734390 99.492668,194.231339 97.317192,193.639374 
	C92.470985,192.320648 87.840729,190.208374 82.898735,188.141861 
z"/>
<path fill="#069815" opacity="1.000000" stroke="none" 
	d="
M103.198593,187.276428 
	C109.726082,189.379105 116.473015,189.678528 123.623642,187.099670 
	C118.244720,193.294266 110.385376,193.505020 103.198593,187.276428 
z"/>
<path fill="#069815" opacity="1.000000" stroke="none" 
	d="
M66.918869,68.653549 
	C62.697662,65.686081 62.529987,62.590954 67.171471,59.917549 
	C71.281075,57.550507 75.908768,56.082954 80.653915,54.109509 
	C78.073410,55.724632 75.257538,57.686577 72.192619,59.113636 
	C68.144073,60.998695 65.503670,63.409325 66.918869,68.653549 
z"/>
<path fill="#069815" opacity="1.000000" stroke="none" 
	d="
M71.868553,108.664207 
	C67.377831,106.926315 66.540115,103.240646 67.828156,98.809692 
	C69.013420,94.732292 70.397224,90.712593 71.847069,86.333878 
	C71.642166,88.891289 71.771957,91.956009 70.818619,94.635323 
	C69.100975,99.462723 68.938828,103.928375 71.868553,108.664207 
z"/>
<path fill="#069815" opacity="1.000000" stroke="none" 
	d="
M87.783585,123.730171 
	C80.524208,123.112946 76.237007,118.668900 74.109970,111.342201 
	C78.524643,115.158295 83.046265,119.316788 87.783585,123.730171 
z"/>
<path fill="#069815" opacity="1.000000" stroke="none" 
	d="
M134.262268,175.783218 
	C135.241577,171.895081 136.481339,167.790100 137.862564,163.343674 
	C139.172562,167.835587 137.599380,171.909286 134.262268,175.783218 
z"/>
<path fill="#069815" opacity="1.000000" stroke="none" 
	d="
M138.966919,153.610077 
	C137.724960,150.591660 136.464996,147.164429 135.108948,143.368896 
	C136.324875,146.400818 137.636887,149.801041 138.966919,153.610077 
z"/>
<path fill="#069815" opacity="1.000000" stroke="none" 
	d="
M109.269585,27.251110 
	C112.031204,27.011068 115.061234,27.008835 118.545135,27.009171 
	C115.965164,29.546682 112.805450,29.585855 109.269585,27.251110 
z"/>
<path fill="#069815" opacity="1.000000" stroke="none" 
	d="
M113.730179,126.746628 
	C110.919159,126.742790 107.839783,126.501053 104.381241,126.127777 
	C107.155334,126.167076 110.308571,126.337906 113.730179,126.746628 
z"/>
<path fill="#069815" opacity="1.000000" stroke="none" 
	d="
M72.245354,83.741852 
	C71.733124,80.930862 71.454964,77.862579 71.088562,74.397110 
	C73.936348,76.780502 74.836304,79.878593 72.245354,83.741852 
z"/>
<path fill="#069815" opacity="1.000000" stroke="none" 
	d="
M125.808502,130.724274 
	C122.880249,129.767258 119.760696,128.533890 116.321976,127.147812 
	C119.207603,128.146027 122.412399,129.296982 125.808502,130.724274 
z"/>
<path fill="#069815" opacity="1.000000" stroke="none" 
	d="
M125.294632,186.857910 
	C127.113297,184.746780 129.244263,182.503510 131.684570,180.124146 
	C129.864914,182.233948 127.735931,184.479858 125.294632,186.857910 
z"/>
<path fill="#069815" opacity="1.000000" stroke="none" 
	d="
M98.664703,124.881615 
	C96.224190,124.776939 93.441139,124.538795 90.329697,124.149117 
	C92.774933,124.247772 95.548553,124.497963 98.664703,124.881615 
z"/>
<path fill="#069815" opacity="1.000000" stroke="none" 
	d="
M99.333603,29.907246 
	C100.755936,29.039227 102.523354,28.084955 104.644882,27.073250 
	C103.225555,27.950872 101.452133,28.885931 99.333603,29.907246 
z"/>
<path fill="#069815" opacity="1.000000" stroke="none" 
	d="
M94.299118,33.866173 
	C95.137596,32.757874 96.272331,31.514660 97.703827,30.137463 
	C96.865517,31.246069 95.730446,32.488663 94.299118,33.866173 
z"/>
<path fill="#069815" opacity="1.000000" stroke="none" 
	d="
M89.264359,41.818985 
	C89.824776,40.783398 90.646828,39.566601 91.729759,38.167011 
	C91.169098,39.202068 90.347549,40.419922 89.264359,41.818985 
z"/>
<path fill="#069815" opacity="1.000000" stroke="none" 
	d="
M138.190674,159.834442 
	C138.250519,159.191788 138.492523,158.383621 138.858459,157.283600 
	C138.779190,157.884155 138.576004,158.776550 138.190674,159.834442 
z"/>
<path fill="#069815" opacity="1.000000" stroke="none" 
	d="
M84.227295,50.828011 
	C84.513504,50.444214 85.026894,49.888374 85.767143,49.159782 
	C85.480827,49.543343 84.967659,50.099655 84.227295,50.828011 
z"/>
<path fill="#069815" opacity="1.000000" stroke="none" 
	d="
M80.826828,190.779449 
	C80.444153,190.491104 79.890709,189.974243 79.167053,189.228439 
	C79.549911,189.516632 80.102989,190.033783 80.826828,190.779449 
z"/>
<path fill="#069815" opacity="1.000000" stroke="none" 
	d="
M133.822556,138.786224 
	C133.441315,138.496277 132.890457,137.976868 132.169464,137.228699 
	C132.550537,137.518875 133.101730,138.037827 133.822556,138.786224 
z"/>
<path fill="#069815" opacity="1.000000" stroke="none" 
	d="
M78.871643,187.766541 
	C78.653259,187.479996 78.319786,186.933548 77.982574,186.188324 
	C78.238068,186.495255 78.497307,187.000931 78.871643,187.766541 
z"/>
<path fill="#069815" opacity="1.000000" stroke="none" 
	d="
M132.230621,178.828003 
	C132.516342,178.444397 133.028854,177.888840 133.768036,177.160706 
	C133.482285,177.544113 132.969864,178.100067 132.230621,178.828003 
z"/>
<path fill="#07A817" opacity="1.000000" stroke="none" 
	d="
M138.964630,56.657211 
	C126.392143,56.528374 115.074707,60.479740 103.453949,63.483055 
	C81.026054,69.279411 81.375450,96.942375 92.506271,107.877777 
	C94.968346,110.296631 97.916115,112.228645 100.688942,114.320267 
	C101.947792,115.269859 103.325500,116.061874 104.894585,117.085373 
	C98.630814,120.768875 85.854996,117.466713 82.820122,111.868759 
	C82.740852,111.722527 82.703926,111.543640 82.598274,111.422813 
	C76.038177,103.920486 76.053299,95.693695 78.228020,86.318832 
	C79.450134,81.050491 77.669167,74.934395 76.554482,69.336967 
	C75.971016,66.407021 75.997856,64.378128 78.808212,63.172741 
	C86.874908,59.712864 91.666519,53.267433 94.718758,45.443317 
	C98.095963,36.786156 104.090813,33.064735 113.357361,33.911175 
	C117.128036,34.255608 121.007271,33.769199 124.805069,33.361965 
	C128.895935,32.923309 132.091187,34.135433 134.074524,37.760605 
	C136.550339,42.285942 138.868271,46.899094 141.188782,51.507359 
	C142.329773,53.773212 142.271835,55.728931 138.964630,56.657211 
z"/>
</svg>